<svg width="32" height="32" viewBox="0 0 32 32" fill="none" xmlns="http://www.w3.org/2000/svg">
<rect width="32" height="32" rx="16" fill="#00613D"/>
<path fill-rule="evenodd" clip-rule="evenodd" d="M20.9177 10.0455C20.9329 10.1238 20.9521 10.2045 20.9824 10.2885C20.9538 10.2089 20.9329 10.127 20.9177 10.0455ZM11.3711 25.5999C10.8132 25.5999 10.3389 25.4372 9.96096 25.1171C9.94069 25.0991 9.92066 25.0794 9.9027 25.0582C9.79535 24.9307 9.46873 24.5442 9.65789 23.8172C9.65916 23.8117 9.66117 23.806 9.66329 23.8004L9.8022 23.3348C10.0048 22.6364 10.0567 22.4762 10.078 22.4207C10.1044 22.3379 10.2072 21.9528 10.291 21.6312C10.2927 21.6233 10.2947 21.6164 10.2973 21.6087L11.3322 18.2901C11.2758 18.2426 11.1681 18.1376 11.0926 17.9751C10.9909 17.7477 11.0015 17.5222 11.0471 17.2513C11.0473 17.2444 11.049 17.2375 11.0506 17.231C11.0926 17.0285 11.2974 16.5145 11.3832 16.3038C11.3889 16.2906 11.3947 16.2776 11.4012 16.2652C11.4963 16.0787 11.6291 15.8701 11.8432 15.7925C11.8996 15.764 11.9591 15.7396 12.0211 15.7141C12.0689 15.6949 12.1222 15.6731 12.1794 15.6467L12.2227 15.6272C12.2315 15.6234 12.2421 15.6185 12.252 15.6141C12.3224 15.3689 12.5002 14.8079 12.5078 14.7825L12.7865 13.8673L13.0927 12.8916L13.21 12.5442C13.1019 12.6092 13.0197 12.6591 13.0112 12.6639L12.2827 13.0808C12.09 13.2264 11.7911 13.2173 11.6012 13.0443C11.4984 12.9506 11.4396 12.8186 11.4391 12.6804C11.438 12.4125 11.4404 10.0317 11.8699 8.94931C11.9273 8.80127 12.2381 8.17066 13.4877 7.7236C13.6719 7.63991 14.8764 7.10543 15.9834 6.93811C16.1424 6.90548 17.5297 6.6231 18.5966 6.49309C18.8437 6.44616 19.2944 6.3999 19.7673 6.3999C20.1627 6.3999 20.5081 6.43169 20.793 6.49483L20.8332 6.50024C21.1177 6.53713 21.8514 6.63266 21.9721 7.24271C22.0051 7.33458 22.028 7.44981 22.0436 7.59491C22.0445 7.605 22.0447 7.6154 22.0454 7.62579C22.0518 7.80339 22.0463 8.59207 22.0459 8.68165L22.0187 9.79939C22.0187 9.80582 22.0187 9.81195 22.0179 9.81844L21.9917 10.2338C22.0192 10.7046 21.3952 11.0541 21.1072 11.2142C20.9781 11.2914 20.7518 11.4448 20.6806 11.5068C20.6585 11.5256 20.6396 11.5428 20.6205 11.5593C20.5045 11.6642 20.3449 11.8073 20.1137 11.8273C20.0061 11.8367 19.898 11.8107 19.8057 11.7545C19.3877 11.5222 19.4711 11.0869 19.5315 10.7692C19.5419 10.7173 19.5595 10.6675 19.5854 10.6212C19.597 10.5986 19.609 10.5776 19.6207 10.5574C19.5159 10.5688 19.4516 10.5764 19.4152 10.5813C19.3852 10.5901 19.3545 10.5964 19.3237 10.5995C19.3052 10.602 17.4491 10.8124 16.5501 11.1915C16.5301 11.2004 16.5098 11.2072 16.4885 11.2133C16.4694 11.2185 16.4505 11.2234 16.4311 11.2279C16.4298 11.2316 16.4295 11.2357 16.4273 11.2402C16.3259 11.5615 15.9414 12.7432 15.9414 12.7432L15.4169 14.4791C15.6563 14.4121 15.9574 14.327 16.1769 14.2651C16.186 14.2624 16.1959 14.2595 16.2055 14.2576L18.0319 13.8547C18.0391 13.8527 18.046 13.8515 18.0536 13.8499C18.1091 13.8404 18.5999 13.7561 18.9051 13.7561C19.0062 13.7561 19.0865 13.7648 19.1578 13.783L19.2211 13.7986C19.4479 13.8526 19.5587 13.9308 19.679 14.1197L19.6924 14.1401C19.7316 14.2019 19.7569 14.2718 19.7673 14.3444C19.787 14.504 19.7966 14.6382 19.7293 14.8906C19.6606 15.1594 19.5476 15.2896 19.4377 15.4157L19.3963 15.4636C19.2515 15.6366 19.078 15.7134 18.9503 15.7699C18.8928 15.7954 18.842 15.8177 18.7918 15.8493C18.7537 15.8724 18.7138 15.8903 18.6717 15.9033C18.4653 15.9656 17.999 16.0949 17.1922 16.2625C16.9045 16.3459 16.3028 16.5114 16.1754 16.5461L14.9116 17.0207L14.4895 17.2087C14.4102 17.4198 14.1996 18.025 14.0562 18.4427L13.5479 19.8844L13.1342 21.0142C13.3367 21.1574 13.5184 21.333 13.6856 21.7807C13.6918 21.7948 13.6964 21.809 13.6999 21.8239C13.7191 21.8936 13.8821 22.5202 13.7546 23.0792C13.7404 23.1494 13.5884 23.8619 13.3444 24.2616C13.252 24.4117 12.9307 24.9153 12.6481 25.1182L12.6173 25.1409C12.4625 25.2582 12.1393 25.5022 11.5953 25.5903C11.5731 25.5941 11.5502 25.5961 11.5281 25.5968L11.5067 25.597C11.4694 25.5986 11.4237 25.5999 11.3711 25.5999Z" fill="white"/>
</svg>
