<svg width="28" height="28" viewBox="0 0 28 28" fill="none" xmlns="http://www.w3.org/2000/svg">
<circle cx="14" cy="14" r="14" fill="#E12424"/>
<path d="M23.5498 9.18689C23.3197 8.33178 22.6455 7.65774 21.7906 7.42748C20.2285 7 13.9804 7 13.9804 7C13.9804 7 7.73233 7 6.17029 7.41118C5.33178 7.6413 4.64114 8.33193 4.41103 9.18689C4 10.7488 4 13.988 4 13.988C4 13.988 4 17.2435 4.41103 18.7891C4.6413 19.6441 5.31533 20.3183 6.17044 20.5485C7.74878 20.976 13.9805 20.976 13.9805 20.976C13.9805 20.976 20.2285 20.976 21.7906 20.5648C22.6457 20.3347 23.3197 19.6605 23.55 18.8056C23.961 17.2435 23.961 14.0044 23.961 14.0044C23.961 14.0044 23.9775 10.7488 23.5498 9.18689Z" fill="white"/>
<path d="M11.9912 16.9806L17.1869 13.9881L11.9912 10.9956L11.9912 16.9806Z" fill="#E12424"/>
</svg>
